<?xml version="1.0" encoding="UTF-8"?>
<svg xmlns="http://www.w3.org/2000/svg" xmlns:xlink="http://www.w3.org/1999/xlink" width="24pt" height="24pt" viewBox="0 0 24 24" version="1.1">
<g id="surface1">
<path style=" stroke:none;fill-rule:nonzero;fill:rgb(45.098039%,81.568627%,95.686275%);fill-opacity:1;" d="M 22.347656 20.886719 L 15.742188 14.277344 C 15.53125 14.546875 15.300781 14.804688 15.054688 15.054688 C 14.804688 15.300781 14.542969 15.535156 14.269531 15.75 L 20.886719 22.34375 C 20.890625 22.351562 20.898438 22.355469 20.902344 22.359375 C 21.304688 22.742188 21.949219 22.738281 22.34375 22.34375 C 22.738281 21.949219 22.742188 21.304688 22.359375 20.902344 C 22.355469 20.898438 22.351562 20.894531 22.347656 20.886719 Z M 22.347656 20.886719 "/>
<path style=" stroke:none;fill-rule:nonzero;fill:rgb(45.098039%,81.568627%,95.686275%);fill-opacity:1;" d="M 14.09375 14.089844 C 17 11.183594 17 6.453125 14.09375 3.542969 C 12.683594 2.136719 10.808594 1.359375 8.816406 1.359375 C 6.824219 1.359375 4.953125 2.136719 3.542969 3.542969 C 2.136719 4.953125 1.359375 6.824219 1.359375 8.816406 C 1.359375 10.808594 2.136719 12.683594 3.542969 14.089844 C 4.953125 15.5 6.824219 16.277344 8.816406 16.277344 C 10.808594 16.277344 12.683594 15.5 14.09375 14.089844 Z M 2.417969 8.816406 C 2.417969 7.109375 3.082031 5.5 4.292969 4.289062 C 5.5 3.082031 7.109375 2.414062 8.816406 2.414062 C 10.527344 2.414062 12.136719 3.082031 13.34375 4.289062 C 15.839844 6.789062 15.839844 10.847656 13.34375 13.34375 C 12.136719 14.554688 10.527344 15.21875 8.816406 15.21875 C 7.109375 15.21875 5.5 14.554688 4.292969 13.34375 C 3.082031 12.136719 2.417969 10.527344 2.417969 8.816406 Z M 2.417969 8.816406 "/>
<path style=" stroke:none;fill-rule:nonzero;fill:rgb(23.921569%,40.784314%,53.72549%);fill-opacity:1;" d="M 13.34375 13.34375 C 15.839844 10.847656 15.839844 6.789062 13.34375 4.292969 C 12.136719 3.082031 10.527344 2.414062 8.816406 2.414062 C 7.109375 2.414062 5.5 3.082031 4.292969 4.292969 C 3.082031 5.5 2.417969 7.109375 2.417969 8.816406 C 2.417969 10.527344 3.082031 12.136719 4.292969 13.34375 C 5.5 14.554688 7.109375 15.21875 8.816406 15.21875 C 10.527344 15.21875 12.136719 14.554688 13.34375 13.34375 Z M 3.777344 8.816406 C 3.777344 7.472656 4.300781 6.203125 5.253906 5.253906 C 6.203125 4.300781 7.472656 3.777344 8.816406 3.777344 C 10.164062 3.777344 11.429688 4.300781 12.382812 5.253906 C 14.347656 7.21875 14.347656 10.417969 12.382812 12.382812 C 11.429688 13.335938 10.164062 13.859375 8.816406 13.859375 C 7.472656 13.859375 6.203125 13.335938 5.253906 12.382812 C 4.300781 11.429688 3.777344 10.164062 3.777344 8.816406 Z M 3.777344 8.816406 "/>
<path style=" stroke:none;fill-rule:nonzero;fill:rgb(23.921569%,40.784314%,53.72549%);fill-opacity:1;" d="M 10.597656 6.785156 C 10.730469 6.917969 10.902344 6.984375 11.078125 6.984375 C 11.25 6.984375 11.425781 6.917969 11.558594 6.785156 C 11.824219 6.519531 11.824219 6.089844 11.558594 5.824219 C 10.824219 5.089844 9.851562 4.6875 8.816406 4.6875 C 7.78125 4.6875 6.808594 5.089844 6.078125 5.824219 C 5.8125 6.089844 5.8125 6.519531 6.078125 6.785156 C 6.34375 7.050781 6.773438 7.050781 7.039062 6.785156 C 7.515625 6.308594 8.144531 6.046875 8.816406 6.046875 C 9.488281 6.046875 10.121094 6.308594 10.597656 6.785156 Z M 10.597656 6.785156 "/>
<path style=" stroke:none;fill-rule:nonzero;fill:rgb(23.921569%,40.784314%,53.72549%);fill-opacity:1;" d="M 23.453125 20.085938 L 23.453125 3.394531 C 23.453125 3.019531 23.148438 2.714844 22.773438 2.714844 L 15.183594 2.714844 C 15.140625 2.671875 15.097656 2.625 15.054688 2.582031 C 13.386719 0.917969 11.171875 0 8.816406 0 C 6.460938 0 4.25 0.917969 2.582031 2.582031 C 0.917969 4.25 0 6.460938 0 8.816406 C 0 11.171875 0.917969 13.386719 2.582031 15.054688 C 2.625 15.097656 2.671875 15.140625 2.714844 15.183594 L 2.714844 22.773438 C 2.714844 23.148438 3.019531 23.453125 3.394531 23.453125 L 20.085938 23.453125 C 20.527344 23.816406 21.070312 24 21.613281 24 C 22.230469 24 22.84375 23.769531 23.304688 23.304688 C 24.175781 22.433594 24.230469 21.023438 23.453125 20.085938 Z M 22.34375 22.34375 C 21.949219 22.738281 21.304688 22.742188 20.902344 22.359375 C 20.898438 22.355469 20.890625 22.351562 20.886719 22.34375 L 14.269531 15.75 C 14.542969 15.535156 14.804688 15.300781 15.054688 15.054688 C 15.300781 14.804688 15.53125 14.546875 15.742188 14.277344 L 22.347656 20.886719 C 22.351562 20.894531 22.355469 20.898438 22.359375 20.902344 C 22.742188 21.304688 22.738281 21.949219 22.34375 22.34375 Z M 22.09375 4.074219 L 22.09375 18.710938 L 16.515625 13.125 C 18.085938 10.3125 18 6.8125 16.253906 4.074219 Z M 1.359375 8.816406 C 1.359375 6.824219 2.136719 4.953125 3.542969 3.542969 C 4.953125 2.136719 6.824219 1.359375 8.816406 1.359375 C 10.808594 1.359375 12.683594 2.136719 14.09375 3.542969 C 17 6.453125 17 11.183594 14.09375 14.089844 C 12.683594 15.5 10.808594 16.277344 8.816406 16.277344 C 6.824219 16.277344 4.953125 15.5 3.542969 14.089844 C 2.136719 12.683594 1.359375 10.808594 1.359375 8.816406 Z M 4.074219 22.09375 L 4.074219 16.253906 C 5.480469 17.152344 7.113281 17.636719 8.816406 17.636719 C 10.347656 17.636719 11.820312 17.25 13.117188 16.519531 L 18.707031 22.09375 Z M 4.074219 22.09375 "/>
</g>
</svg>
